<svg width="11" height="12" viewBox="0 0 11 12" fill="none" xmlns="http://www.w3.org/2000/svg">
<path d="M4.375 9.74992C3.20344 9.74992 2.25013 8.79661 2.25013 7.62505V2.5H1.37483C0.616536 2.5 0 3.11654 0 3.87483V10.6252C0 11.3835 0.616536 12 1.37483 12H7.62494C8.38323 12 8.99977 11.3835 8.99977 10.6252V9.74992H4.375Z" fill="#069494"/>
<path d="M4.37483 0C3.61504 0 3 0.615786 3 1.37483V7.62494C3 8.38474 3.61579 8.99977 4.37483 8.99977H9.62513C10.3849 8.99977 11 8.38399 11 7.62494V1.50009C11 0.671289 10.3287 0 9.49988 0H4.37483Z" fill="#069494"/>
</svg>
